<svg width="928" height="600" viewBox="0 0 928 600" fill="none" xmlns="http://www.w3.org/2000/svg">
<path d="M283.766 491L286.259 495H269V491H283.766Z" fill="#2BB3EB"/>
<path d="M247.62 433L250.113 437H232V433H247.62Z" fill="#2BB3EB"/>
<path d="M210.85 374L213.343 378H196V374H210.85Z" fill="#2BB3EB"/>
<path d="M173.457 314L175.95 318H159V314H173.457Z" fill="#2BB3EB"/>
<path d="M147.429 254C146.976 255.311 146.63 256.649 146.393 258H131V254H147.429Z" fill="#2BB3EB"/>
<path d="M177 198.003L174.863 202H157V198H177V198.003Z" fill="#2BB3EB"/>
<path d="M207.474 141L205.336 145H188V141H207.474Z" fill="#2BB3EB"/>
<path d="M237.947 84L235.809 88H218V84H237.947Z" fill="#2BB3EB"/>
<g filter="url(#filter0_d_17_480)">
<path fill-rule="evenodd" clip-rule="evenodd" d="M224 52.0653L130.035 228C118.535 247 116.535 258 126.035 274L294.723 544H303.723L138.535 279C131.535 267 131.035 256.5 138.535 242L237.409 56H324.45C321.801 57.413 319.343 59.1748 317.144 61.2444C313.102 65.0505 310.326 70.2309 305.262 79.6833L305.052 80.0745L211.083 255.453L210.88 255.833C205.665 265.565 202.821 270.871 201.814 276.489C200.922 281.458 201.086 286.559 202.294 291.461C203.66 297.003 206.838 302.116 212.666 311.494L212.894 311.86L357.16 544H361.869L216.291 309.748C210.175 299.908 207.374 295.355 206.178 290.504C205.104 286.147 204.958 281.612 205.751 277.195C206.633 272.277 209.137 267.555 214.609 257.342L308.578 81.9636C313.908 72.0152 316.377 67.4609 319.886 64.1568C323.041 61.1871 326.801 58.9358 330.909 57.5578C335.479 56.0247 340.659 56 351.945 56H355.926L612 56L610 52H351.068H239.535H224.035H224V52.0653Z" fill="url(#paint0_linear_17_480)"/>
</g>
<path d="M115.354 88.288V86.944C115.354 85.856 114.842 85.536 113.53 85.536H98.1057V81.472H113.53C118.65 81.472 120.602 83.328 120.602 86.336V88.032C120.602 90.208 119.546 91.264 118.234 91.776C119.61 92.128 120.89 92.96 120.89 95.424V99.136C120.89 101.696 119.29 104 113.594 104H98.1057V99.904H113.594C115.002 99.904 115.674 99.456 115.674 98.304V95.712C115.674 94.496 115.066 94.016 113.53 94.016H99.0657V89.92H113.53C115.002 89.92 115.354 89.536 115.354 88.288ZM144.132 88.288V86.944C144.132 85.856 143.62 85.536 142.308 85.536H126.884V81.472H142.308C147.428 81.472 149.38 83.328 149.38 86.336V88.032C149.38 90.208 148.324 91.264 147.012 91.776C148.388 92.128 149.668 92.96 149.668 95.424V99.136C149.668 101.696 148.068 104 142.372 104H126.884V99.904H142.372C143.78 99.904 144.452 99.456 144.452 98.304V95.712C144.452 94.496 143.844 94.016 142.308 94.016H127.844V89.92H142.308C143.78 89.92 144.132 89.536 144.132 88.288ZM173.935 104H163.087C157.839 104 155.855 101.792 155.855 98.56V86.912C155.855 83.68 157.839 81.472 163.087 81.472H173.935C179.183 81.472 181.199 83.68 181.199 86.912V98.56C181.199 101.792 179.183 104 173.935 104ZM175.951 98.592V86.848C175.951 85.952 175.247 85.536 173.935 85.536H163.087C161.775 85.536 161.071 85.952 161.071 86.848V98.592C161.071 99.52 161.775 99.904 163.087 99.904H173.935C175.247 99.904 175.951 99.52 175.951 98.592Z" fill="#77CEF5"/>
<path d="M350.164 387H346.44V370.06L345.068 371.628H341.148L344.984 367.288H350.164V387Z" fill="#E2DDDF"/>
<path d="M393.086 457H389.362V440.06L387.99 441.628H384.07L387.906 437.288H393.086V457ZM397.582 458.12H395.118L405.982 436.168H408.446L397.582 458.12ZM430.407 457H410.023V449.804C410.023 446.976 411.731 445.044 416.211 445.044H424.219C425.899 445.044 426.683 444.4 426.683 443.224V442.02C426.683 440.844 425.899 440.2 424.219 440.2H411.087V437.288H424.219C428.699 437.288 430.407 439.22 430.407 442.048V443.196C430.407 446.024 428.699 447.956 424.219 447.956H416.211C414.531 447.956 413.747 448.6 413.747 449.776V454.088H430.407V457Z" fill="#E2DDDF"/>
<path d="M457.144 545H447.876C443.396 545 441.688 543.068 441.688 540.24V530.048C441.688 527.22 443.396 525.288 447.876 525.288H457.144C461.624 525.288 463.332 527.22 463.332 530.048V540.24C463.332 543.068 461.624 545 457.144 545ZM459.608 540.268V530.02C459.608 528.844 458.824 528.2 457.144 528.2H447.876C446.196 528.2 445.412 528.844 445.412 530.02V540.268C445.412 541.444 446.196 542.088 447.876 542.088H457.144C458.824 542.088 459.608 541.444 459.608 540.268Z" fill="#E2DDDF"/>
<path d="M88.9457 161H65.0737V152.264C65.0737 149.032 67.0577 146.824 72.3057 146.824H81.5857C82.9937 146.824 83.6977 146.44 83.6977 145.384V144.008C83.6977 142.952 82.9937 142.536 81.5857 142.536H66.3217V138.472H81.5857C86.9297 138.472 88.9457 140.68 88.9457 144.072V145.352C88.9457 148.712 86.9297 150.92 81.5857 150.92H72.3057C70.9937 150.92 70.2897 151.304 70.2897 152.232V156.904H88.9457V161ZM105.574 161H99.654L114.086 142.536H94.15V138.472H119.974V141.768L105.574 161ZM142.935 161H132.087C126.839 161 124.855 158.792 124.855 155.56V143.912C124.855 140.68 126.839 138.472 132.087 138.472H142.935C148.183 138.472 150.199 140.68 150.199 143.912V155.56C150.199 158.792 148.183 161 142.935 161ZM144.951 155.592V143.848C144.951 142.952 144.247 142.536 142.935 142.536H132.087C130.775 142.536 130.071 142.952 130.071 143.848V155.592C130.071 156.52 130.775 156.904 132.087 156.904H142.935C144.247 156.904 144.951 156.52 144.951 155.592Z" fill="#77CEF5"/>
<path d="M72.2582 218H48.3862V209.264C48.3862 206.032 50.3702 203.824 55.6182 203.824H64.8982C66.3062 203.824 67.0102 203.44 67.0102 202.384V201.008C67.0102 199.952 66.3062 199.536 64.8982 199.536H49.6342V195.472H64.8982C70.2422 195.472 72.2582 197.68 72.2582 201.072V202.352C72.2582 205.712 70.2422 207.92 64.8982 207.92H55.6182C54.3062 207.92 53.6022 208.304 53.6022 209.232V213.904H72.2582V218ZM88.4705 218H83.2225V199.344L82.0705 200.432H76.5665L81.1745 195.472H88.4705V218ZM112.935 218H102.087C96.8392 218 94.8552 215.792 94.8552 212.56V200.912C94.8552 197.68 96.8392 195.472 102.087 195.472H112.935C118.183 195.472 120.199 197.68 120.199 200.912V212.56C120.199 215.792 118.183 218 112.935 218ZM114.951 212.592V200.848C114.951 199.952 114.247 199.536 112.935 199.536H102.087C100.775 199.536 100.071 199.952 100.071 200.848V212.592C100.071 213.52 100.775 213.904 102.087 213.904H112.935C114.247 213.904 114.951 213.52 114.951 212.592Z" fill="#77CEF5"/>
<path d="M40.848 274H35.6V255.344L34.448 256.432H28.944L33.552 251.472H40.848V274ZM63.7447 274H47.2647V269.904H63.7447C65.0567 269.904 65.7607 269.52 65.7607 268.592V264.208C65.7607 263.248 65.0567 262.896 63.7447 262.896H47.2647V251.472H70.2407V255.536H52.4807V258.8H63.7447C68.9927 258.8 71.0087 261.008 71.0087 264.24V268.56C71.0087 271.792 68.9927 274 63.7447 274ZM94.9352 274H84.0872C78.8392 274 76.8552 271.792 76.8552 268.56V256.912C76.8552 253.68 78.8392 251.472 84.0872 251.472H94.9352C100.183 251.472 102.199 253.68 102.199 256.912V268.56C102.199 271.792 100.183 274 94.9352 274ZM96.9512 268.592V256.848C96.9512 255.952 96.2472 255.536 94.9352 255.536H84.0872C82.7752 255.536 82.0712 255.952 82.0712 256.848V268.592C82.0712 269.52 82.7752 269.904 84.0872 269.904H94.9352C96.2472 269.904 96.9512 269.52 96.9512 268.592Z" fill="#77CEF5"/>
<path d="M71.7542 334H66.5062V315.344L65.3542 316.432H59.8502L64.4582 311.472H71.7542V334ZM101.787 334H77.915V325.264C77.915 322.032 79.899 319.824 85.147 319.824H94.427C95.835 319.824 96.539 319.44 96.539 318.384V317.008C96.539 315.952 95.835 315.536 94.427 315.536H79.163V311.472H94.427C99.771 311.472 101.787 313.68 101.787 317.072V318.352C101.787 321.712 99.771 323.92 94.427 323.92H85.147C83.835 323.92 83.131 324.304 83.131 325.232V329.904H101.787V334ZM125.935 334H115.087C109.839 334 107.855 331.792 107.855 328.56V316.912C107.855 313.68 109.839 311.472 115.087 311.472H125.935C131.183 311.472 133.199 313.68 133.199 316.912V328.56C133.199 331.792 131.183 334 125.935 334ZM127.951 328.592V316.848C127.951 315.952 127.247 315.536 125.935 315.536H115.087C113.775 315.536 113.071 315.952 113.071 316.848V328.592C113.071 329.52 113.775 329.904 115.087 329.904H125.935C127.247 329.904 127.951 329.52 127.951 328.592Z" fill="#77CEF5"/>
<path d="M131.426 393H113.762V388.904H131.426C132.738 388.904 133.442 388.52 133.442 387.592V384.68H119.746C114.498 384.68 112.514 382.472 112.514 379.24V375.912C112.514 372.68 114.498 370.472 119.746 370.472H131.426C136.674 370.472 138.69 372.68 138.69 375.912V387.56C138.69 390.792 136.674 393 131.426 393ZM133.442 380.584V375.848C133.442 374.952 132.738 374.536 131.426 374.536H119.746C118.434 374.536 117.73 374.952 117.73 375.848V379.272C117.73 380.168 118.434 380.584 119.746 380.584H133.442ZM162.935 393H152.087C146.839 393 144.855 390.792 144.855 387.56V375.912C144.855 372.68 146.839 370.472 152.087 370.472H162.935C168.183 370.472 170.199 372.68 170.199 375.912V387.56C170.199 390.792 168.183 393 162.935 393ZM164.951 387.592V375.848C164.951 374.952 164.247 374.536 162.935 374.536H152.087C150.775 374.536 150.071 374.952 150.071 375.848V387.592C150.071 388.52 150.775 388.904 152.087 388.904H162.935C164.247 388.904 164.951 388.52 164.951 387.592Z" fill="#77CEF5"/>
<path d="M168.52 452H156.84C151.592 452 149.608 449.792 149.608 446.56V434.912C149.608 431.68 151.592 429.472 156.84 429.472H174.696V433.536H156.36C155.24 433.536 154.824 434.144 154.824 434.848V437.184H168.52C174.056 437.184 175.784 439.168 175.784 442.624V446.56C175.784 449.792 173.768 452 168.52 452ZM170.536 446.592V442.592C170.536 441.632 169.864 441.28 168.52 441.28H154.824V446.592C154.824 447.584 155.336 447.904 156.392 447.904H168.52C169.928 447.904 170.536 447.616 170.536 446.592ZM199.935 452H189.087C183.839 452 181.855 449.792 181.855 446.56V434.912C181.855 431.68 183.839 429.472 189.087 429.472H199.935C205.183 429.472 207.199 431.68 207.199 434.912V446.56C207.199 449.792 205.183 452 199.935 452ZM201.951 446.592V434.848C201.951 433.952 201.247 433.536 199.935 433.536H189.087C187.775 433.536 187.071 433.952 187.071 434.848V446.592C187.071 447.52 187.775 447.904 189.087 447.904H199.935C201.247 447.904 201.951 447.52 201.951 446.592Z" fill="#77CEF5"/>
<path d="M206.132 494.288V492.944C206.132 491.856 205.62 491.536 204.309 491.536H188.884V487.472H204.309C209.428 487.472 211.38 489.328 211.38 492.336V494.032C211.38 496.208 210.324 497.264 209.012 497.776C210.389 498.128 211.668 498.96 211.668 501.424V505.136C211.668 507.696 210.069 510 204.372 510H188.884V505.904H204.372C205.781 505.904 206.452 505.456 206.452 504.304V501.712C206.452 500.496 205.844 500.016 204.309 500.016H189.844V495.92H204.309C205.781 495.92 206.132 495.536 206.132 494.288ZM235.935 510H225.087C219.839 510 217.855 507.792 217.855 504.56V492.912C217.855 489.68 219.839 487.472 225.087 487.472H235.935C241.183 487.472 243.199 489.68 243.199 492.912V504.56C243.199 507.792 241.183 510 235.935 510ZM237.951 504.592V492.848C237.951 491.952 237.247 491.536 235.935 491.536H225.087C223.775 491.536 223.071 491.952 223.071 492.848V504.592C223.071 505.52 223.775 505.904 225.087 505.904H235.935C237.247 505.904 237.951 505.52 237.951 504.592Z" fill="#77CEF5"/>
<path d="M271.935 569H261.087C255.839 569 253.855 566.792 253.855 563.56V551.912C253.855 548.68 255.839 546.472 261.087 546.472H271.935C277.183 546.472 279.199 548.68 279.199 551.912V563.56C279.199 566.792 277.183 569 271.935 569ZM273.951 563.592V551.848C273.951 550.952 273.247 550.536 271.935 550.536H261.087C259.775 550.536 259.071 550.952 259.071 551.848V563.592C259.071 564.52 259.775 564.904 261.087 564.904H271.935C273.247 564.904 273.951 564.52 273.951 563.592Z" fill="#77CEF5"/>
<path opacity="0.7" d="M257.68 21.008H259.444V33.552L267.452 26.552H269.804L263.644 31.9L270.224 41H268.012L262.3 33.132L259.444 35.512V41H257.68V21.008ZM271.68 26.552H273.304V28.988H273.388C273.855 28.092 274.461 27.392 275.208 26.888C275.973 26.384 276.944 26.132 278.12 26.132C279.072 26.132 279.931 26.3653 280.696 26.832C281.48 27.2987 282.003 28.008 282.264 28.96C282.693 28.008 283.328 27.2987 284.168 26.832C285.008 26.3653 285.904 26.132 286.856 26.132C290.048 26.132 291.644 27.8213 291.644 31.2V41H289.88V31.284C289.88 30.0893 289.628 29.184 289.124 28.568C288.62 27.9333 287.733 27.616 286.464 27.616C285.699 27.616 285.064 27.7653 284.56 28.064C284.056 28.344 283.655 28.7267 283.356 29.212C283.057 29.6973 282.843 30.2573 282.712 30.892C282.6 31.508 282.544 32.152 282.544 32.824V41H280.78V31.2C280.78 30.7147 280.724 30.2573 280.612 29.828C280.519 29.38 280.351 28.9973 280.108 28.68C279.884 28.344 279.576 28.0827 279.184 27.896C278.792 27.7093 278.316 27.616 277.756 27.616C277.009 27.616 276.356 27.756 275.796 28.036C275.255 28.2973 274.807 28.6707 274.452 29.156C274.116 29.6227 273.864 30.1827 273.696 30.836C273.528 31.4707 273.444 32.1707 273.444 32.936V41H271.68V26.552ZM292.988 41.392L301.584 20.588H303.012L294.472 41.392H292.988ZM304.3 21.008H306.064V29.044H306.12C306.456 28.1667 307.054 27.4667 307.912 26.944C308.771 26.4027 309.714 26.132 310.74 26.132C311.748 26.132 312.588 26.2627 313.26 26.524C313.951 26.7853 314.502 27.1587 314.912 27.644C315.323 28.1107 315.612 28.6893 315.78 29.38C315.948 30.0707 316.032 30.8453 316.032 31.704V41H314.268V31.984C314.268 31.368 314.212 30.7987 314.1 30.276C313.988 29.7347 313.792 29.268 313.512 28.876C313.232 28.484 312.85 28.176 312.364 27.952C311.898 27.728 311.31 27.616 310.6 27.616C309.891 27.616 309.256 27.7467 308.696 28.008C308.155 28.2507 307.688 28.596 307.296 29.044C306.923 29.4733 306.624 29.996 306.4 30.612C306.195 31.2093 306.083 31.8627 306.064 32.572V41H304.3V21.008Z" fill="#9BC2D9"/>
<path d="M428.295 303.008H430.675V314.852L437.283 308.524H440.475L434.735 313.788L440.895 323H437.871L432.915 315.44L430.675 317.512V323H428.295V303.008ZM442.675 308.524H444.915V310.652H444.971C446.053 309.009 447.612 308.188 449.647 308.188C450.543 308.188 451.355 308.375 452.083 308.748C452.811 309.121 453.324 309.756 453.623 310.652C454.108 309.868 454.743 309.261 455.527 308.832C456.329 308.403 457.207 308.188 458.159 308.188C458.887 308.188 459.54 308.272 460.119 308.44C460.716 308.589 461.22 308.832 461.631 309.168C462.06 309.504 462.387 309.943 462.611 310.484C462.853 311.007 462.975 311.641 462.975 312.388V323H460.595V313.508C460.595 313.06 460.557 312.64 460.483 312.248C460.408 311.856 460.268 311.52 460.063 311.24C459.857 310.941 459.568 310.708 459.195 310.54C458.84 310.372 458.373 310.288 457.795 310.288C456.619 310.288 455.695 310.624 455.023 311.296C454.351 311.968 454.015 312.864 454.015 313.984V323H451.635V313.508C451.635 313.041 451.588 312.612 451.495 312.22C451.42 311.828 451.28 311.492 451.075 311.212C450.869 310.913 450.589 310.689 450.235 310.54C449.899 310.372 449.46 310.288 448.919 310.288C448.228 310.288 447.631 310.428 447.127 310.708C446.641 310.988 446.24 311.324 445.923 311.716C445.624 312.108 445.4 312.519 445.251 312.948C445.12 313.359 445.055 313.704 445.055 313.984V323H442.675V308.524ZM472.538 302.532H474.582L466.294 323.448H464.278L472.538 302.532ZM475.87 303.008H478.25V310.652H478.306C478.493 310.204 478.754 309.831 479.09 309.532C479.426 309.215 479.799 308.963 480.21 308.776C480.639 308.571 481.078 308.421 481.526 308.328C481.993 308.235 482.441 308.188 482.87 308.188C483.822 308.188 484.615 308.319 485.25 308.58C485.885 308.841 486.398 309.205 486.79 309.672C487.182 310.139 487.453 310.699 487.602 311.352C487.77 311.987 487.854 312.696 487.854 313.48V323H485.474V313.2C485.474 312.304 485.213 311.595 484.69 311.072C484.167 310.549 483.449 310.288 482.534 310.288C481.806 310.288 481.171 310.4 480.63 310.624C480.107 310.848 479.669 311.165 479.314 311.576C478.959 311.987 478.689 312.472 478.502 313.032C478.334 313.573 478.25 314.171 478.25 314.824V323H475.87V303.008Z" fill="#1582A3"/>
<path d="M364.314 548H297.569L301.92 555H368.678L364.314 548Z" fill="white"/>
<path d="M371 559H304.5C304.5 559 313.5 570 334.5 570H844.5L848 564H382.5C376.5 564 371 559 371 559Z" fill="#0292F2"/>
<path fill-rule="evenodd" clip-rule="evenodd" d="M290.118 367H294.818L404.648 545H399.948L290.118 367Z" fill="url(#paint1_linear_17_480)"/>
<path d="M602 576H335.337C322.338 576 310.017 579.994 301.737 586.891L286 600H602V576Z" fill="url(#paint2_linear_17_480)"/>
<path d="M602 576H335.337C322.338 576 310.017 579.994 301.737 586.891L286 600H602V576Z" fill="url(#paint3_linear_17_480)"/>
<defs>
<filter id="filter0_d_17_480" x="118" y="44" width="508" height="508" filterUnits="userSpaceOnUse" color-interpolation-filters="sRGB">
<feFlood flood-opacity="0" result="BackgroundImageFix"/>
<feColorMatrix in="SourceAlpha" type="matrix" values="0 0 0 0 0 0 0 0 0 0 0 0 0 0 0 0 0 0 127 0" result="hardAlpha"/>
<feOffset dx="6"/>
<feGaussianBlur stdDeviation="4"/>
<feComposite in2="hardAlpha" operator="out"/>
<feColorMatrix type="matrix" values="0 0 0 0 0 0 0 0 0 0 0 0 0 0 0 0 0 0 0.8 0"/>
<feBlend mode="normal" in2="BackgroundImageFix" result="effect1_dropShadow_17_480"/>
<feBlend mode="normal" in="SourceGraphic" in2="effect1_dropShadow_17_480" result="shape"/>
</filter>
<linearGradient id="paint0_linear_17_480" x1="355.5" y1="94.5" x2="163.5" y2="544" gradientUnits="userSpaceOnUse">
<stop stop-color="#4BB9E9"/>
<stop offset="0.333333" stop-color="#0699DD"/>
<stop offset="0.666667" stop-color="#0997E3"/>
<stop offset="1" stop-color="#2AE2FB"/>
</linearGradient>
<linearGradient id="paint1_linear_17_480" x1="289.819" y1="367" x2="400.753" y2="551.551" gradientUnits="userSpaceOnUse">
<stop stop-color="#B9B7C5"/>
<stop offset="1" stop-color="#AAAFB5"/>
</linearGradient>
<linearGradient id="paint2_linear_17_480" x1="334.671" y1="600" x2="334.671" y2="576" gradientUnits="userSpaceOnUse">
<stop/>
<stop offset="1" stop-color="#0292F2"/>
</linearGradient>
<linearGradient id="paint3_linear_17_480" x1="324.501" y1="566.5" x2="435.724" y2="651.548" gradientUnits="userSpaceOnUse">
<stop stop-opacity="0"/>
<stop offset="1"/>
</linearGradient>
</defs>
</svg>
