<svg width="928" height="584" viewBox="0 0 928 584" fill="none" xmlns="http://www.w3.org/2000/svg">
<path d="M644.234 475L641.741 479H659V475H644.234Z" fill="#F11630"/>
<path d="M680.38 417L677.887 421H696V417H680.38Z" fill="#F11630"/>
<path d="M717.15 358L714.657 362H732V358H717.15Z" fill="#F11630"/>
<path d="M754.543 298L752.05 302H769V298H754.543Z" fill="#F11630"/>
<path d="M780.571 238C781.024 239.311 781.37 240.649 781.607 242H797V238H780.571Z" fill="#F11630"/>
<path d="M751 182.003L753.137 186H771V182H751V182.003Z" fill="#F11630"/>
<path d="M720.526 125L722.664 129H740V125H720.526Z" fill="#F11630"/>
<path d="M690.053 68L692.191 72H710V68H690.053Z" fill="#F11630"/>
<g filter="url(#filter0_d_17_526)">
<path fill-rule="evenodd" clip-rule="evenodd" d="M704 36.0653L797.965 212C809.465 231 811.465 242 801.965 258L633.277 528H624.277L789.465 263C796.465 251 796.965 240.5 789.465 226L690.591 40H603.55C606.199 41.413 608.657 43.1748 610.856 45.2444C614.898 49.0505 617.674 54.2309 622.738 63.6833L622.948 64.0745L716.917 239.453L717.12 239.833C722.335 249.565 725.179 254.871 726.186 260.489C727.078 265.458 726.914 270.559 725.706 275.461C724.34 281.003 721.162 286.116 715.334 295.494L715.106 295.86L570.84 528H566.131L711.709 293.748C717.825 283.908 720.626 279.355 721.822 274.504C722.896 270.147 723.042 265.612 722.249 261.195C721.367 256.277 718.863 251.555 713.391 241.342L619.422 65.9636C614.092 56.0152 611.623 51.4609 608.114 48.1568C604.959 45.1871 601.199 42.9358 597.091 41.5578C592.521 40.0247 587.341 40 576.055 40H572.074L316 40L318 36H576.932H688.465H703.965H704V36.0653Z" fill="url(#paint0_linear_17_526)"/>
</g>
<path d="M764.92 82H750.32C743.76 82 741.28 79.24 741.28 75.2V60.64C741.28 56.6 743.76 53.84 750.32 53.84H772.64V58.92H749.72C748.32 58.92 747.8 59.68 747.8 60.56V63.48H764.92C771.84 63.48 774 65.96 774 70.28V75.2C774 79.24 771.48 82 764.92 82ZM767.44 75.24V70.24C767.44 69.04 766.6 68.6 764.92 68.6H747.8V75.24C747.8 76.48 748.44 76.88 749.76 76.88H764.92C766.68 76.88 767.44 76.52 767.44 75.24Z" fill="#F16666"/>
<path d="M813.92 167H793.32V161.88H813.92C815.56 161.88 816.44 161.4 816.44 160.24V154.76C816.44 153.56 815.56 153.12 813.92 153.12H793.32V138.84H822.04V143.92H799.84V148H813.92C820.48 148 823 150.76 823 154.8V160.2C823 164.24 820.48 167 813.92 167Z" fill="#F16666"/>
<path d="M848.36 255H841.8V250.64H816.52V246.52L831.76 226.84H838.84L824.28 245.56H841.8V226.84H848.36V245.56H851.04V250.64H848.36V255Z" fill="#F16666"/>
<path d="M815.6 309.36V307.68C815.6 306.32 814.96 305.92 813.32 305.92H794.04V300.84H813.32C819.72 300.84 822.16 303.16 822.16 306.92V309.04C822.16 311.76 820.84 313.08 819.2 313.72C820.92 314.16 822.52 315.2 822.52 318.28V322.92C822.52 326.12 820.52 329 813.4 329H794.04V323.88H813.4C815.16 323.88 816 323.32 816 321.88V318.64C816 317.12 815.24 316.52 813.32 316.52H795.24V311.4H813.32C815.16 311.4 815.6 310.92 815.6 309.36Z" fill="#F16666"/>
<path d="M770.84 403H741V392.08C741 388.04 743.48 385.28 750.04 385.28H761.64C763.4 385.28 764.28 384.8 764.28 383.48V381.76C764.28 380.44 763.4 379.92 761.64 379.92H742.56V374.84H761.64C768.32 374.84 770.84 377.6 770.84 381.84V383.44C770.84 387.64 768.32 390.4 761.64 390.4H750.04C748.4 390.4 747.52 390.88 747.52 392.04V397.88H770.84V403Z" fill="#F16666"/>
<path d="M707.96 485H701.4V461.68L699.96 463.04H693.08L698.84 456.84H707.96V485Z" fill="#F16666"/>
<path d="M653.4 525.008H660.848C662.528 525.008 663.835 525.437 664.768 526.296C665.701 527.136 666.168 528.424 666.168 530.16C666.168 531.504 665.897 532.605 665.356 533.464C664.815 534.304 663.975 534.845 662.836 535.088V535.144C663.844 535.293 664.581 535.62 665.048 536.124C665.515 536.628 665.804 537.44 665.916 538.56C665.953 538.933 665.981 539.344 666 539.792C666.019 540.221 666.037 540.707 666.056 541.248C666.093 542.312 666.149 543.124 666.224 543.684C666.336 544.244 666.579 544.627 666.952 544.832V545H662.584C662.379 544.72 662.248 544.403 662.192 544.048C662.136 543.675 662.099 543.292 662.08 542.9L661.968 539.064C661.931 538.28 661.735 537.664 661.38 537.216C661.025 536.768 660.428 536.544 659.588 536.544H657.432V545H653.4V525.008ZM657.432 533.744H659.112C660.083 533.744 660.829 533.52 661.352 533.072C661.875 532.605 662.136 531.831 662.136 530.748C662.136 528.9 661.203 527.976 659.336 527.976H657.432V533.744ZM680.131 525.008V528.312H672.991V533.016H679.711V536.32H672.991V541.696H680.411V545H668.959V525.008H680.131ZM690.783 537.468L688.851 528.48H688.795L686.863 537.468H690.783ZM691.315 525.008L696.607 545H692.407L691.483 540.772H686.163L685.239 545H681.039L686.331 525.008H691.315ZM702.226 542.032H704.018C704.727 542.032 705.296 541.911 705.726 541.668C706.155 541.425 706.491 541.024 706.734 540.464C706.995 539.904 707.163 539.167 707.238 538.252C707.331 537.337 707.378 536.199 707.378 534.836C707.378 533.697 707.34 532.699 707.266 531.84C707.191 530.981 707.032 530.272 706.79 529.712C706.566 529.133 706.22 528.704 705.754 528.424C705.306 528.125 704.699 527.976 703.934 527.976H702.226V542.032ZM698.194 525.008H704.802C706.202 525.008 707.331 525.241 708.19 525.708C709.048 526.156 709.711 526.809 710.178 527.668C710.663 528.508 710.99 529.525 711.158 530.72C711.326 531.915 711.41 533.249 711.41 534.724C711.41 536.479 711.298 538.009 711.074 539.316C710.868 540.604 710.504 541.668 709.982 542.508C709.459 543.348 708.759 543.973 707.882 544.384C707.004 544.795 705.894 545 704.55 545H698.194V525.008ZM716.749 525.008L719.381 532.736H719.437L722.237 525.008H726.605L721.425 537.132V545H717.393V537.132L712.213 525.008H716.749Z" fill="white"/>
<path d="M536.793 371H533.069V354.06L531.697 355.628H527.777L531.613 351.288H536.793V371ZM554.421 371H540.337V368.088H554.421C556.101 368.088 556.885 367.444 556.885 366.268V362.74C556.885 361.564 556.101 360.92 554.421 360.92H540.337V351.288H559.965V354.2H544.061V358.008H554.421C558.901 358.008 560.609 359.94 560.609 362.768V366.24C560.609 369.068 558.901 371 554.421 371ZM579.144 371H569.876C565.396 371 563.688 369.068 563.688 366.24V356.048C563.688 353.22 565.396 351.288 569.876 351.288H579.144C583.624 351.288 585.332 353.22 585.332 356.048V366.24C585.332 369.068 583.624 371 579.144 371ZM581.608 366.268V356.02C581.608 354.844 580.824 354.2 579.144 354.2H569.876C568.196 354.2 567.412 354.844 567.412 356.02V366.268C567.412 367.444 568.196 368.088 569.876 368.088H579.144C580.824 368.088 581.608 367.444 581.608 366.268Z" fill="#E2DDDF"/>
<path d="M535.399 392.548C534.615 392.548 533.953 392.809 533.411 393.332C532.889 393.855 532.627 394.676 532.627 395.796C532.627 396.207 532.674 396.608 532.767 397C532.879 397.373 533.047 397.709 533.271 398.008C533.495 398.307 533.785 398.54 534.139 398.708C534.494 398.876 534.923 398.96 535.427 398.96C535.931 398.96 536.351 398.876 536.687 398.708C537.042 398.54 537.322 398.316 537.527 398.036C537.751 397.737 537.91 397.401 538.003 397.028C538.115 396.636 538.171 396.235 538.171 395.824C538.171 395.152 538.078 394.601 537.891 394.172C537.723 393.743 537.499 393.407 537.219 393.164C536.958 392.921 536.659 392.763 536.323 392.688C536.006 392.595 535.698 392.548 535.399 392.548ZM535.399 391.148C536.165 391.148 536.837 391.269 537.415 391.512C537.994 391.736 538.479 392.063 538.871 392.492C539.263 392.903 539.562 393.397 539.767 393.976C539.973 394.536 540.075 395.143 540.075 395.796C540.075 397.14 539.683 398.241 538.899 399.1C538.115 399.94 536.958 400.36 535.427 400.36C534.681 400.36 534.018 400.248 533.439 400.024C532.861 399.8 532.366 399.483 531.955 399.072C531.563 398.661 531.255 398.185 531.031 397.644C530.826 397.084 530.723 396.468 530.723 395.796C530.723 395.143 530.826 394.536 531.031 393.976C531.237 393.416 531.535 392.931 531.927 392.52C532.319 392.091 532.805 391.755 533.383 391.512C533.981 391.269 534.653 391.148 535.399 391.148ZM557.01 397.028C556.711 395.609 556.048 394.545 555.022 393.836C554.014 393.127 552.81 392.772 551.41 392.772C550.215 392.772 549.188 392.996 548.33 393.444C547.49 393.892 546.79 394.499 546.23 395.264C545.688 396.011 545.287 396.869 545.026 397.84C544.764 398.811 544.634 399.819 544.634 400.864C544.634 402.003 544.764 403.085 545.026 404.112C545.287 405.12 545.688 406.007 546.23 406.772C546.79 407.519 547.499 408.116 548.358 408.564C549.216 409.012 550.243 409.236 551.438 409.236C552.315 409.236 553.09 409.096 553.762 408.816C554.452 408.517 555.04 408.116 555.526 407.612C556.03 407.089 556.422 406.473 556.702 405.764C556.982 405.055 557.15 404.289 557.206 403.468H559.866C559.604 405.988 558.736 407.948 557.262 409.348C555.787 410.748 553.771 411.448 551.214 411.448C549.664 411.448 548.311 411.187 547.154 410.664C545.996 410.123 545.035 409.385 544.27 408.452C543.504 407.519 542.926 406.417 542.534 405.148C542.16 403.879 541.974 402.516 541.974 401.06C541.974 399.604 542.179 398.241 542.59 396.972C543 395.684 543.598 394.564 544.382 393.612C545.184 392.66 546.174 391.913 547.35 391.372C548.544 390.812 549.907 390.532 551.438 390.532C552.483 390.532 553.472 390.672 554.406 390.952C555.339 391.232 556.17 391.643 556.898 392.184C557.626 392.725 558.232 393.407 558.718 394.228C559.203 395.031 559.52 395.964 559.67 397.028H557.01Z" fill="#E2DDDF"/>
<path d="M474.667 478.272L481.198 480.752V472.752L474.667 470.66V478.272Z" fill="#E2DDDF"/>
<path d="M481.198 485.34L498.263 485.34L509.424 474.181L508.174 472.381L497.541 476.914L494.392 474.697V476.715L497.686 479.046L504.523 476.212L497.388 483.322H483.216V476.715L494.392 476.715V474.697H489.579V473.148H492.185V471.128H484.949V473.148H487.559V474.697H483.216V473.627L481.198 472.752L481.198 485.34Z" fill="#E2DDDF"/>
<path d="M509.034 483.657C510.303 483.657 511.333 482.627 511.333 481.358C511.333 480.089 509.034 476.971 509.034 476.971C509.034 476.971 506.735 480.089 506.735 481.358C506.735 482.627 507.765 483.657 509.034 483.657Z" fill="#E2DDDF"/>
<path d="M486.179 451H482.455V434.06L481.083 435.628H477.163L480.999 431.288H486.179V451ZM505.152 451H495.884C491.404 451 489.696 449.068 489.696 446.24V436.048C489.696 433.22 491.404 431.288 495.884 431.288H505.152C509.632 431.288 511.34 433.22 511.34 436.048V446.24C511.34 449.068 509.632 451 505.152 451ZM507.616 446.268V436.02C507.616 434.844 506.832 434.2 505.152 434.2H495.884C494.204 434.2 493.42 434.844 493.42 436.02V446.268C493.42 447.444 494.204 448.088 495.884 448.088H505.152C506.832 448.088 507.616 447.444 507.616 446.268ZM530.144 451H520.876C516.396 451 514.688 449.068 514.688 446.24V436.048C514.688 433.22 516.396 431.288 520.876 431.288H530.144C534.624 431.288 536.332 433.22 536.332 436.048V446.24C536.332 449.068 534.624 451 530.144 451ZM532.608 446.268V436.02C532.608 434.844 531.824 434.2 530.144 434.2H520.876C519.196 434.2 518.412 434.844 518.412 436.02V446.268C518.412 447.444 519.196 448.088 520.876 448.088H530.144C531.824 448.088 532.608 447.444 532.608 446.268Z" fill="#E2DDDF"/>
<path d="M455.421 529H441.337V526.088H455.421C457.101 526.088 457.885 525.444 457.885 524.268V520.74C457.885 519.564 457.101 518.92 455.421 518.92H441.337V509.288H460.965V512.2H445.061V516.008H455.421C459.901 516.008 461.609 517.94 461.609 520.768V524.24C461.609 527.068 459.901 529 455.421 529ZM480.144 529H470.876C466.396 529 464.688 527.068 464.688 524.24V514.048C464.688 511.22 466.396 509.288 470.876 509.288H480.144C484.624 509.288 486.332 511.22 486.332 514.048V524.24C486.332 527.068 484.624 529 480.144 529ZM482.608 524.268V514.02C482.608 512.844 481.824 512.2 480.144 512.2H470.876C469.196 512.2 468.412 512.844 468.412 514.02V524.268C468.412 525.444 469.196 526.088 470.876 526.088H480.144C481.824 526.088 482.608 525.444 482.608 524.268Z" fill="#E2DDDF"/>
<path opacity="0.7" d="M510.001 9.18C510.766 9.16133 511.457 9.124 512.073 9.068C512.708 8.99333 513.249 8.83467 513.697 8.592C514.164 8.34933 514.546 7.98533 514.845 7.5C515.162 6.996 515.386 6.296 515.517 5.4H516.945V25H515.181V10.44H510.001V9.18ZM522.508 25.392L531.104 4.588H532.532L523.992 25.392H522.508ZM533.848 10.552H535.472V12.988H535.556C536.023 12.092 536.629 11.392 537.376 10.888C538.141 10.384 539.112 10.132 540.288 10.132C541.24 10.132 542.099 10.3653 542.864 10.832C543.648 11.2987 544.171 12.008 544.432 12.96C544.861 12.008 545.496 11.2987 546.336 10.832C547.176 10.3653 548.072 10.132 549.024 10.132C552.216 10.132 553.812 11.8213 553.812 15.2V25H552.048V15.284C552.048 14.0893 551.796 13.184 551.292 12.568C550.788 11.9333 549.901 11.616 548.632 11.616C547.867 11.616 547.232 11.7653 546.728 12.064C546.224 12.344 545.823 12.7267 545.524 13.212C545.225 13.6973 545.011 14.2573 544.88 14.892C544.768 15.508 544.712 16.152 544.712 16.824V25H542.948V15.2C542.948 14.7147 542.892 14.2573 542.78 13.828C542.687 13.38 542.519 12.9973 542.276 12.68C542.052 12.344 541.744 12.0827 541.352 11.896C540.96 11.7093 540.484 11.616 539.924 11.616C539.177 11.616 538.524 11.756 537.964 12.036C537.423 12.2973 536.975 12.6707 536.62 13.156C536.284 13.6227 536.032 14.1827 535.864 14.836C535.696 15.4707 535.612 16.1707 535.612 16.936V25H533.848V10.552ZM557.2 5.008H558.964V7.836H557.2V5.008ZM557.2 10.552H558.964V25H557.2V10.552ZM562.312 10.552H564.076V13.044H564.132C564.468 12.1667 565.065 11.4667 565.924 10.944C566.783 10.4027 567.725 10.132 568.752 10.132C569.76 10.132 570.6 10.2627 571.272 10.524C571.963 10.7853 572.513 11.1587 572.924 11.644C573.335 12.1107 573.624 12.6893 573.792 13.38C573.96 14.0707 574.044 14.8453 574.044 15.704V25H572.28V15.984C572.28 15.368 572.224 14.7987 572.112 14.276C572 13.7347 571.804 13.268 571.524 12.876C571.244 12.484 570.861 12.176 570.376 11.952C569.909 11.728 569.321 11.616 568.612 11.616C567.903 11.616 567.268 11.7467 566.708 12.008C566.167 12.2507 565.7 12.596 565.308 13.044C564.935 13.4733 564.636 13.996 564.412 14.612C564.207 15.2093 564.095 15.8627 564.076 16.572V25H562.312V10.552ZM589.12 17.496L583.94 10.552H586.152L590.268 16.04L594.3 10.552H596.512L591.304 17.468L596.932 25H594.692L590.156 18.924L585.704 25H583.52L589.12 17.496ZM607.482 9.18C608.247 9.16133 608.938 9.124 609.554 9.068C610.188 8.99333 610.73 8.83467 611.178 8.592C611.644 8.34933 612.027 7.98533 612.326 7.5C612.643 6.996 612.867 6.296 612.998 5.4H614.426V25H612.662V10.44H607.482V9.18ZM628.108 5.232C629.546 5.232 630.703 5.54933 631.58 6.184C632.476 6.8 633.167 7.59333 633.652 8.564C634.156 9.53467 634.492 10.6173 634.66 11.812C634.847 13.0067 634.94 14.1733 634.94 15.312C634.94 16.4693 634.847 17.6453 634.66 18.84C634.492 20.0347 634.156 21.1173 633.652 22.088C633.167 23.0587 632.476 23.852 631.58 24.468C630.703 25.084 629.546 25.392 628.108 25.392C626.69 25.392 625.532 25.084 624.636 24.468C623.74 23.852 623.04 23.0587 622.536 22.088C622.051 21.1173 621.715 20.0347 621.528 18.84C621.36 17.6453 621.276 16.4787 621.276 15.34C621.276 14.1827 621.36 13.0067 621.528 11.812C621.715 10.6173 622.051 9.53467 622.536 8.564C623.04 7.59333 623.74 6.8 624.636 6.184C625.532 5.54933 626.69 5.232 628.108 5.232ZM628.108 6.716C626.988 6.716 626.092 7.00533 625.42 7.584C624.748 8.16267 624.235 8.88133 623.88 9.74C623.544 10.5987 623.32 11.532 623.208 12.54C623.096 13.548 623.04 14.472 623.04 15.312C623.04 16.1707 623.096 17.104 623.208 18.112C623.32 19.1013 623.544 20.0347 623.88 20.912C624.235 21.7707 624.748 22.4893 625.42 23.068C626.092 23.6467 626.988 23.936 628.108 23.936C629.228 23.936 630.124 23.6467 630.796 23.068C631.468 22.4893 631.972 21.7707 632.308 20.912C632.663 20.0347 632.896 19.1013 633.008 18.112C633.12 17.104 633.176 16.1707 633.176 15.312C633.176 14.472 633.12 13.548 633.008 12.54C632.896 11.532 632.663 10.5987 632.308 9.74C631.972 8.88133 631.468 8.16267 630.796 7.584C630.124 7.00533 629.228 6.716 628.108 6.716ZM643.667 5.232C645.104 5.232 646.261 5.54933 647.139 6.184C648.035 6.8 648.725 7.59333 649.211 8.564C649.715 9.53467 650.051 10.6173 650.219 11.812C650.405 13.0067 650.499 14.1733 650.499 15.312C650.499 16.4693 650.405 17.6453 650.219 18.84C650.051 20.0347 649.715 21.1173 649.211 22.088C648.725 23.0587 648.035 23.852 647.139 24.468C646.261 25.084 645.104 25.392 643.667 25.392C642.248 25.392 641.091 25.084 640.195 24.468C639.299 23.852 638.599 23.0587 638.095 22.088C637.609 21.1173 637.273 20.0347 637.087 18.84C636.919 17.6453 636.835 16.4787 636.835 15.34C636.835 14.1827 636.919 13.0067 637.087 11.812C637.273 10.6173 637.609 9.53467 638.095 8.564C638.599 7.59333 639.299 6.8 640.195 6.184C641.091 5.54933 642.248 5.232 643.667 5.232ZM643.667 6.716C642.547 6.716 641.651 7.00533 640.979 7.584C640.307 8.16267 639.793 8.88133 639.439 9.74C639.103 10.5987 638.879 11.532 638.767 12.54C638.655 13.548 638.599 14.472 638.599 15.312C638.599 16.1707 638.655 17.104 638.767 18.112C638.879 19.1013 639.103 20.0347 639.439 20.912C639.793 21.7707 640.307 22.4893 640.979 23.068C641.651 23.6467 642.547 23.936 643.667 23.936C644.787 23.936 645.683 23.6467 646.355 23.068C647.027 22.4893 647.531 21.7707 647.867 20.912C648.221 20.0347 648.455 19.1013 648.567 18.112C648.679 17.104 648.735 16.1707 648.735 15.312C648.735 14.472 648.679 13.548 648.567 12.54C648.455 11.532 648.221 10.5987 647.867 9.74C647.531 8.88133 647.027 8.16267 646.355 7.584C645.683 7.00533 644.787 6.716 643.667 6.716ZM659.225 5.232C660.663 5.232 661.82 5.54933 662.697 6.184C663.593 6.8 664.284 7.59333 664.769 8.564C665.273 9.53467 665.609 10.6173 665.777 11.812C665.964 13.0067 666.057 14.1733 666.057 15.312C666.057 16.4693 665.964 17.6453 665.777 18.84C665.609 20.0347 665.273 21.1173 664.769 22.088C664.284 23.0587 663.593 23.852 662.697 24.468C661.82 25.084 660.663 25.392 659.225 25.392C657.807 25.392 656.649 25.084 655.753 24.468C654.857 23.852 654.157 23.0587 653.653 22.088C653.168 21.1173 652.832 20.0347 652.645 18.84C652.477 17.6453 652.393 16.4787 652.393 15.34C652.393 14.1827 652.477 13.0067 652.645 11.812C652.832 10.6173 653.168 9.53467 653.653 8.564C654.157 7.59333 654.857 6.8 655.753 6.184C656.649 5.54933 657.807 5.232 659.225 5.232ZM659.225 6.716C658.105 6.716 657.209 7.00533 656.537 7.584C655.865 8.16267 655.352 8.88133 654.997 9.74C654.661 10.5987 654.437 11.532 654.325 12.54C654.213 13.548 654.157 14.472 654.157 15.312C654.157 16.1707 654.213 17.104 654.325 18.112C654.437 19.1013 654.661 20.0347 654.997 20.912C655.352 21.7707 655.865 22.4893 656.537 23.068C657.209 23.6467 658.105 23.936 659.225 23.936C660.345 23.936 661.241 23.6467 661.913 23.068C662.585 22.4893 663.089 21.7707 663.425 20.912C663.78 20.0347 664.013 19.1013 664.125 18.112C664.237 17.104 664.293 16.1707 664.293 15.312C664.293 14.472 664.237 13.548 664.125 12.54C664.013 11.532 663.78 10.5987 663.425 9.74C663.089 8.88133 662.585 8.16267 661.913 7.584C661.241 7.00533 660.345 6.716 659.225 6.716Z" fill="#F16666"/>
<path d="M563.686 532H630.431L626.08 539H559.322L563.686 532Z" fill="white"/>
<path d="M557 543H623.5C623.5 543 614.5 554 593.5 554H83.5L80 548H545.5C551.5 548 557 543 557 543Z" fill="#FD0725"/>
<path d="M326 560H592.663C605.662 560 617.983 563.994 626.263 570.891L642 584H326V560Z" fill="url(#paint1_linear_17_526)"/>
<path d="M326 560H592.663C605.662 560 617.983 563.994 626.263 570.891L642 584H326V560Z" fill="url(#paint2_linear_17_526)"/>
<path d="M533.224 513L523.352 529H528.052L537.925 513H533.224Z" fill="#14B0EB"/>
<path d="M633.182 351H637.882L628.01 367H623.31L633.182 351Z" fill="#FD0725"/>
<path fill-rule="evenodd" clip-rule="evenodd" d="M626.776 369H622.076L533.842 512H538.542L626.776 369Z" fill="url(#paint3_linear_17_526)"/>
<path fill-rule="evenodd" clip-rule="evenodd" d="M722.974 123L696.806 74H705.875L732.043 123H722.974ZM727.247 131L753.415 180H762.484L736.316 131H727.247ZM764.63 201L757.687 188H766.757L773.699 201H764.63Z" fill="#FFCF28"/>
<path fill-rule="evenodd" clip-rule="evenodd" d="M727.247 131L733.655 143H742.725L736.316 131H727.247Z" fill="#FFCF28"/>
<path fill-rule="evenodd" clip-rule="evenodd" d="M714.429 107H723.499L705.875 74H696.806L714.429 107Z" fill="#ED0D2C"/>
<path fill-rule="evenodd" clip-rule="evenodd" d="M714.429 107L722.974 123H732.043L723.499 107H714.429Z" fill="#FFCF28"/>
<defs>
<filter id="filter0_d_17_526" x="302" y="28" width="508" height="508" filterUnits="userSpaceOnUse" color-interpolation-filters="sRGB">
<feFlood flood-opacity="0" result="BackgroundImageFix"/>
<feColorMatrix in="SourceAlpha" type="matrix" values="0 0 0 0 0 0 0 0 0 0 0 0 0 0 0 0 0 0 127 0" result="hardAlpha"/>
<feOffset dx="-6"/>
<feGaussianBlur stdDeviation="4"/>
<feComposite in2="hardAlpha" operator="out"/>
<feColorMatrix type="matrix" values="0 0 0 0 0 0 0 0 0 0 0 0 0 0 0 0 0 0 0.8 0"/>
<feBlend mode="normal" in2="BackgroundImageFix" result="effect1_dropShadow_17_526"/>
<feBlend mode="normal" in="SourceGraphic" in2="effect1_dropShadow_17_526" result="shape"/>
</filter>
<linearGradient id="paint0_linear_17_526" x1="572.5" y1="78.5" x2="764.5" y2="528" gradientUnits="userSpaceOnUse">
<stop stop-color="#F1152F"/>
<stop offset="0.333333" stop-color="#E70328"/>
<stop offset="0.666667" stop-color="#DE030D"/>
<stop offset="1" stop-color="#FC4638"/>
</linearGradient>
<linearGradient id="paint1_linear_17_526" x1="593.329" y1="584" x2="593.329" y2="560" gradientUnits="userSpaceOnUse">
<stop/>
<stop offset="1" stop-color="#FE122F"/>
</linearGradient>
<linearGradient id="paint2_linear_17_526" x1="603.499" y1="550.5" x2="492.276" y2="635.548" gradientUnits="userSpaceOnUse">
<stop stop-opacity="0"/>
<stop offset="1"/>
</linearGradient>
<linearGradient id="paint3_linear_17_526" x1="637" y1="351" x2="525" y2="533.5" gradientUnits="userSpaceOnUse">
<stop stop-color="#B9B7C5"/>
<stop offset="1" stop-color="#AAAFB5"/>
</linearGradient>
</defs>
</svg>
